# MagicaVoxel @ ephtracy

# material
mtllib BowGoblin_Idle0.mtl
usemtl palette

# normals
vn -1 0 0
vn 1 0 0
vn 0 0 1
vn 0 0 -1
vn 0 -1 0
vn 0 1 0

# texcoords
vt 0.0253906 0.5
vt 0.0644531 0.5
vt 0.0683594 0.5
vt 0.333984 0.5
vt 0.369141 0.5
vt 0.771484 0.5
vt 0.791016 0.5
vt 0.794922 0.5
vt 0.845703 0.5
vt 0.849609 0.5
vt 0.853516 0.5
vt 0.861328 0.5
vt 0.904297 0.5
vt 0.958984 0.5
vt 0.962891 0.5
vt 0.966797 0.5

# verts and faces
v -5 9 0.5
v -5 9 -0.5
v -5 10 0.5
v -5 10 -0.5
f -2/6/1 -3/6/1 -4/6/1
f -1/6/1 -3/6/1 -2/6/1
v -4 7 0.5
v -4 7 -0.5
v -4 9 0.5
v -4 9 -0.5
f -2/6/1 -3/6/1 -4/6/1
f -1/6/1 -3/6/1 -2/6/1
v -3 2 1.5
v -3 2 -1.5
v -3 3 2.5
v -3 3 1.5
v -3 3 0.5
v -3 3 -0.5
v -3 3 -1.5
v -3 3 -2.5
v -3 4 2.5
v -3 4 1.5
v -3 4 -1.5
v -3 4 -2.5
v -3 5 0.5
v -3 5 -0.5
v -3 6 0.5
v -3 6 -1.5
v -3 7 2.5
v -3 7 0.5
v -3 7 -0.5
v -3 9 2.5
v -3 9 1.5
v -3 9 0.5
v -3 9 -0.5
v -3 10 1.5
v -3 10 -1.5
f -22/2/1 -24/2/1 -25/2/1
f -21/2/1 -24/2/1 -22/2/1
f -20/2/1 -24/2/1 -21/2/1
f -19/2/1 -24/2/1 -20/2/1
f -17/2/1 -22/2/1 -23/2/1
f -16/2/1 -22/2/1 -17/2/1
f -15/2/1 -18/2/1 -19/2/1
f -14/2/1 -18/2/1 -15/2/1
f -13/13/1 -20/13/1 -21/13/1
f -12/13/1 -20/13/1 -13/13/1
f -8/13/1 -10/13/1 -11/13/1
f -7/13/1 -10/13/1 -8/13/1
f -6/13/1 -8/13/1 -9/13/1
f -5/13/1 -8/13/1 -6/13/1
f -4/13/1 -8/13/1 -5/13/1
f -3/13/1 -10/13/1 -7/13/1
f -2/13/1 -4/13/1 -5/13/1
f -2/13/1 -3/13/1 -4/13/1
f -1/13/1 -10/13/1 -3/13/1
f -1/13/1 -3/13/1 -2/13/1
v -2 0 0.5
v -2 0 -0.5
v -2 1 0.5
v -2 1 -0.5
v -2 2 0.5
v -2 2 -0.5
v -2 3 1.5
v -2 3 0.5
v -2 3 -0.5
v -2 3 -1.5
v -2 4 1.5
v -2 4 -1.5
v -2 5 1.5
v -2 5 0.5
v -2 5 -0.5
v -2 5 -1.5
v -2 6 2.5
v -2 6 1.5
v -2 6 0.5
v -2 6 -0.5
v -2 6 -1.5
v -2 6 -2.5
v -2 7 2.5
v -2 7 0.5
v -2 7 -1.5
v -2 7 -2.5
v -2 8 -1.5
v -2 8 -2.5
v -2 9 2.5
v -2 9 1.5
v -2 10 2.5
v -2 10 1.5
v -2 10 0.5
v -2 10 -1.5
v -2 10 -2.5
v -2 11 1.5
v -2 11 0.5
v -2 11 -1.5
f -36/10/1 -37/10/1 -38/10/1
f -35/10/1 -37/10/1 -36/10/1
f -34/13/1 -35/13/1 -36/13/1
f -33/13/1 -35/13/1 -34/13/1
f -28/16/1 -31/16/1 -32/16/1
f -27/16/1 -29/16/1 -30/16/1
f -26/16/1 -31/16/1 -28/16/1
f -25/16/1 -31/16/1 -26/16/1
f -24/16/1 -27/16/1 -30/16/1
f -23/16/1 -27/16/1 -24/16/1
f -21/5/1 -25/5/1 -26/5/1
f -20/16/1 -24/16/1 -25/16/1
f -20/5/1 -25/5/1 -21/5/1
f -19/14/1 -23/14/1 -24/14/1
f -19/16/1 -24/16/1 -20/16/1
f -18/14/1 -23/14/1 -19/14/1
f -16/13/1 -21/13/1 -22/13/1
f -16/13/1 -20/13/1 -21/13/1
f -15/13/1 -20/13/1 -16/13/1
f -14/13/1 -17/13/1 -18/13/1
f -13/13/1 -17/13/1 -14/13/1
f -12/8/1 -13/8/1 -14/8/1
f -11/8/1 -13/8/1 -12/8/1
f -8/13/1 -9/13/1 -10/13/1
f -7/13/1 -9/13/1 -8/13/1
f -5/13/1 -11/13/1 -12/13/1
f -4/13/1 -11/13/1 -5/13/1
f -3/11/1 -6/11/1 -7/11/1
f -2/9/1 -5/9/1 -6/9/1
f -2/11/1 -6/11/1 -3/11/1
f -1/9/1 -5/9/1 -2/9/1
v -1 10 2.5
v -1 10 1.5
v -1 10 -1.5
v -1 10 -2.5
v -1 11 2.5
v -1 11 1.5
v -1 11 0.5
v -1 11 -0.5
v -1 11 -1.5
v -1 11 -2.5
v -1 12 1.5
v -1 12 0.5
v -1 12 -0.5
v -1 12 -1.5
v -1 13 0.5
v -1 13 -0.5
v -1 13 -1.5
v -1 13 -2.5
v -1 14 -0.5
v -1 14 -2.5
f -16/9/1 -19/9/1 -20/9/1
f -15/9/1 -19/9/1 -16/9/1
f -12/9/1 -17/9/1 -18/9/1
f -11/9/1 -17/9/1 -12/9/1
f -10/9/1 -13/9/1 -14/9/1
f -10/9/1 -14/9/1 -15/9/1
f -9/9/1 -13/9/1 -10/9/1
f -8/11/1 -12/11/1 -13/11/1
f -8/9/1 -13/9/1 -9/9/1
f -7/11/1 -12/11/1 -8/11/1
f -6/11/1 -8/11/1 -9/11/1
f -5/9/1 -7/9/1 -8/9/1
f -5/11/1 -8/11/1 -6/11/1
f -4/9/1 -7/9/1 -5/9/1
f -2/11/1 -4/11/1 -5/11/1
f -2/11/1 -3/11/1 -4/11/1
f -1/11/1 -3/11/1 -2/11/1
v 1 0 0.5
v 1 0 -0.5
v 1 1 0.5
v 1 1 -0.5
v 1 2 0.5
v 1 2 -0.5
v 1 4 0.5
v 1 4 -0.5
v 1 5 0.5
v 1 5 -0.5
f -8/10/1 -9/10/1 -10/10/1
f -7/10/1 -9/10/1 -8/10/1
f -6/13/1 -7/13/1 -8/13/1
f -5/13/1 -7/13/1 -6/13/1
f -2/4/1 -3/4/1 -4/4/1
f -1/4/1 -3/4/1 -2/4/1
v 4 9 0.5
v 4 9 -0.5
v 4 10 0.5
v 4 10 -0.5
f -2/6/1 -3/6/1 -4/6/1
f -1/6/1 -3/6/1 -2/6/1
v -4 9 0.5
v -4 9 -0.5
v -4 10 0.5
v -4 10 -0.5
f -4/6/2 -3/6/2 -2/6/2
f -2/6/2 -3/6/2 -1/6/2
v -2 3 2.5
v -2 3 1.5
v -2 3 -1.5
v -2 3 -2.5
v -2 4 2.5
v -2 4 1.5
v -2 4 -1.5
v -2 4 -2.5
f -8/2/2 -7/2/2 -4/2/2
f -4/2/2 -7/2/2 -3/2/2
f -6/2/2 -5/2/2 -2/2/2
f -2/2/2 -5/2/2 -1/2/2
v -1 0 0.5
v -1 0 -0.5
v -1 1 0.5
v -1 1 -0.5
v -1 2 0.5
v -1 2 -0.5
v -1 4 0.5
v -1 4 -0.5
v -1 5 0.5
v -1 5 -0.5
f -10/10/2 -9/10/2 -8/10/2
f -8/10/2 -9/10/2 -7/10/2
f -8/13/2 -7/13/2 -6/13/2
f -6/13/2 -7/13/2 -5/13/2
f -4/4/2 -3/4/2 -2/4/2
f -2/4/2 -3/4/2 -1/4/2
v 0 12 -0.5
v 0 12 -1.5
v 0 13 -0.5
v 0 13 -1.5
v 0 13 -2.5
v 0 14 -0.5
v 0 14 -2.5
f -7/9/2 -6/9/2 -5/9/2
f -5/9/2 -6/9/2 -4/9/2
f -5/11/2 -4/11/2 -2/11/2
f -4/11/2 -3/11/2 -2/11/2
f -2/11/2 -3/11/2 -1/11/2
v 1 10 2.5
v 1 10 1.5
v 1 10 -1.5
v 1 10 -2.5
v 1 11 2.5
v 1 11 1.5
v 1 11 0.5
v 1 11 -1.5
v 1 11 -2.5
v 1 12 1.5
v 1 12 0.5
v 1 12 -0.5
v 1 12 -1.5
v 1 13 0.5
v 1 13 -0.5
f -15/9/2 -14/9/2 -11/9/2
f -11/9/2 -14/9/2 -10/9/2
f -13/9/2 -12/9/2 -8/9/2
f -8/9/2 -12/9/2 -7/9/2
f -10/11/2 -9/11/2 -6/11/2
f -9/9/2 -8/9/2 -5/9/2
f -6/11/2 -9/11/2 -5/11/2
f -5/9/2 -8/9/2 -4/9/2
f -4/9/2 -8/9/2 -3/9/2
f -5/9/2 -4/9/2 -2/9/2
f -2/9/2 -4/9/2 -1/9/2
v 2 0 0.5
v 2 0 -0.5
v 2 1 0.5
v 2 1 -0.5
v 2 2 1.5
v 2 2 0.5
v 2 2 -0.5
v 2 2 -1.5
v 2 3 1.5
v 2 3 0.5
v 2 3 -0.5
v 2 3 -1.5
v 2 5 0.5
v 2 5 -0.5
v 2 6 2.5
v 2 6 1.5
v 2 6 -1.5
v 2 6 -2.5
v 2 7 2.5
v 2 7 1.5
v 2 7 -1.5
v 2 7 -2.5
v 2 9 2.5
v 2 9 1.5
v 2 9 -1.5
v 2 9 -2.5
v 2 10 2.5
v 2 10 1.5
v 2 10 -1.5
v 2 10 -2.5
v 2 11 1.5
v 2 11 -1.5
f -32/10/2 -31/10/2 -30/10/2
f -30/10/2 -31/10/2 -29/10/2
f -30/13/2 -29/13/2 -27/13/2
f -27/13/2 -29/13/2 -26/13/2
f -27/13/2 -26/13/2 -24/13/2
f -26/13/2 -25/13/2 -24/13/2
f -28/13/2 -27/13/2 -24/13/2
f -24/13/2 -25/13/2 -23/13/2
f -23/13/2 -25/13/2 -22/13/2
f -22/13/2 -25/13/2 -21/13/2
f -24/16/2 -23/16/2 -20/16/2
f -22/16/2 -21/16/2 -19/16/2
f -24/16/2 -20/16/2 -17/16/2
f -20/16/2 -19/16/2 -17/16/2
f -19/16/2 -21/16/2 -16/16/2
f -17/16/2 -19/16/2 -16/16/2
f -18/13/2 -17/13/2 -14/13/2
f -14/13/2 -17/13/2 -13/13/2
f -16/13/2 -15/13/2 -12/13/2
f -12/13/2 -15/13/2 -11/13/2
f -10/7/2 -9/7/2 -6/7/2
f -6/7/2 -9/7/2 -5/7/2
f -8/13/2 -7/13/2 -4/13/2
f -4/13/2 -7/13/2 -3/13/2
f -5/9/2 -4/9/2 -2/9/2
f -2/9/2 -4/9/2 -1/9/2
v 3 3 0.5
v 3 3 -0.5
v 3 5 0.5
v 3 5 -0.5
v 3 6 1.5
v 3 6 -1.5
v 3 7 2.5
v 3 7 1.5
v 3 7 0.5
v 3 7 -0.5
v 3 7 -1.5
v 3 7 -2.5
v 3 9 2.5
v 3 9 1.5
v 3 9 0.5
v 3 9 -0.5
v 3 9 -1.5
v 3 9 -2.5
v 3 10 1.5
v 3 10 -1.5
f -20/13/2 -19/13/2 -18/13/2
f -18/13/2 -19/13/2 -17/13/2
f -16/13/2 -15/13/2 -13/13/2
f -13/13/2 -15/13/2 -12/13/2
f -12/13/2 -15/13/2 -11/13/2
f -11/13/2 -15/13/2 -10/13/2
f -14/13/2 -13/13/2 -8/13/2
f -13/13/2 -12/13/2 -8/13/2
f -8/13/2 -12/13/2 -7/13/2
f -7/13/2 -12/13/2 -6/13/2
f -10/13/2 -9/13/2 -5/13/2
f -11/13/2 -10/13/2 -5/13/2
f -5/13/2 -9/13/2 -4/13/2
f -4/13/2 -9/13/2 -3/13/2
f -7/13/2 -6/13/2 -2/13/2
f -5/13/2 -4/13/2 -2/13/2
f -6/13/2 -5/13/2 -2/13/2
f -2/13/2 -4/13/2 -1/13/2
v 4 7 0.5
v 4 7 -0.5
v 4 9 0.5
v 4 9 -0.5
f -4/6/2 -3/6/2 -2/6/2
f -2/6/2 -3/6/2 -1/6/2
v 5 9 0.5
v 5 9 -0.5
v 5 10 0.5
v 5 10 -0.5
f -4/6/2 -3/6/2 -2/6/2
f -2/6/2 -3/6/2 -1/6/2
v -3 3 2.5
v -3 4 2.5
v -3 7 2.5
v -3 9 2.5
v -2 3 2.5
v -2 4 2.5
v -2 6 2.5
v -2 7 2.5
v -2 8 2.5
v -2 9 2.5
v -2 10 2.5
v -1 7 2.5
v -1 8 2.5
v -1 9 2.5
v -1 10 2.5
v -1 11 2.5
v 0 6 2.5
v 0 7 2.5
v 0 8 2.5
v 0 9 2.5
v 1 6 2.5
v 1 7 2.5
v 1 8 2.5
v 1 9 2.5
v 1 10 2.5
v 1 11 2.5
v 2 6 2.5
v 2 7 2.5
v 2 8 2.5
v 2 9 2.5
v 2 10 2.5
v 3 7 2.5
v 3 9 2.5
f -29/2/3 -32/2/3 -33/2/3
f -28/2/3 -32/2/3 -29/2/3
f -26/13/3 -30/13/3 -31/13/3
f -25/13/3 -30/13/3 -26/13/3
f -24/13/3 -30/13/3 -25/13/3
f -22/13/3 -26/13/3 -27/13/3
f -22/7/3 -25/7/3 -26/7/3
f -21/12/3 -24/12/3 -25/12/3
f -21/7/3 -25/7/3 -22/7/3
f -20/13/3 -23/13/3 -24/13/3
f -20/12/3 -24/12/3 -21/12/3
f -19/13/3 -23/13/3 -20/13/3
f -17/13/3 -21/13/3 -22/13/3
f -17/13/3 -22/13/3 -27/13/3
f -16/13/3 -21/13/3 -17/13/3
f -15/8/3 -20/8/3 -21/8/3
f -15/13/3 -21/13/3 -16/13/3
f -14/13/3 -19/13/3 -20/13/3
f -14/8/3 -20/8/3 -15/8/3
f -13/7/3 -16/7/3 -17/7/3
f -12/8/3 -15/8/3 -16/8/3
f -12/7/3 -16/7/3 -13/7/3
f -11/13/3 -14/13/3 -15/13/3
f -11/8/3 -15/8/3 -12/8/3
f -10/13/3 -19/13/3 -14/13/3
f -10/13/3 -14/13/3 -11/13/3
f -9/9/3 -18/9/3 -19/9/3
f -9/13/3 -19/13/3 -10/13/3
f -8/9/3 -18/9/3 -9/9/3
f -7/13/3 -11/13/3 -12/13/3
f -7/13/3 -12/13/3 -13/13/3
f -6/13/3 -11/13/3 -7/13/3
f -5/12/3 -10/12/3 -11/12/3
f -5/13/3 -11/13/3 -6/13/3
f -4/7/3 -9/7/3 -10/7/3
f -4/12/3 -10/12/3 -5/12/3
f -3/7/3 -9/7/3 -4/7/3
f -2/13/3 -5/13/3 -6/13/3
f -2/13/3 -4/13/3 -5/13/3
f -1/13/3 -4/13/3 -2/13/3
v -3 2 1.5
v -3 3 1.5
v -3 9 1.5
v -3 10 1.5
v -2 2 1.5
v -2 3 1.5
v -2 4 1.5
v -2 5 1.5
v -2 6 1.5
v -2 9 1.5
v -2 10 1.5
v -2 11 1.5
v -1 3 1.5
v -1 4 1.5
v -1 5 1.5
v -1 6 1.5
v -1 10 1.5
v -1 11 1.5
v -1 12 1.5
v 0 3 1.5
v 0 4 1.5
v 0 5 1.5
v 0 6 1.5
v 0 11 1.5
v 0 12 1.5
v 1 5 1.5
v 1 6 1.5
v 1 10 1.5
v 1 11 1.5
v 1 12 1.5
v 2 2 1.5
v 2 3 1.5
v 2 6 1.5
v 2 7 1.5
v 2 9 1.5
v 2 10 1.5
v 2 11 1.5
v 3 6 1.5
v 3 7 1.5
v 3 9 1.5
v 3 10 1.5
f -37/2/3 -40/2/3 -41/2/3
f -36/2/3 -40/2/3 -37/2/3
f -32/13/3 -38/13/3 -39/13/3
f -31/13/3 -38/13/3 -32/13/3
f -29/13/3 -36/13/3 -37/13/3
f -29/16/3 -35/16/3 -36/16/3
f -29/16/3 -34/16/3 -35/16/3
f -28/16/3 -34/16/3 -29/16/3
f -27/5/3 -33/5/3 -34/5/3
f -27/16/3 -34/16/3 -28/16/3
f -26/5/3 -33/5/3 -27/5/3
f -25/11/3 -30/11/3 -31/11/3
f -24/11/3 -30/11/3 -25/11/3
f -22/14/3 -28/14/3 -29/14/3
f -22/13/3 -29/13/3 -37/13/3
f -21/16/3 -26/16/3 -27/16/3
f -21/14/3 -28/14/3 -22/14/3
f -21/16/3 -27/16/3 -28/16/3
f -20/16/3 -26/16/3 -21/16/3
f -19/16/3 -26/16/3 -20/16/3
f -18/9/3 -23/9/3 -24/9/3
f -17/9/3 -23/9/3 -18/9/3
f -16/15/3 -19/15/3 -20/15/3
f -16/16/3 -21/16/3 -22/16/3
f -16/16/3 -20/16/3 -21/16/3
f -15/15/3 -19/15/3 -16/15/3
f -13/11/3 -17/11/3 -18/11/3
f -12/11/3 -17/11/3 -13/11/3
f -11/13/3 -22/13/3 -37/13/3
f -10/16/3 -15/16/3 -16/16/3
f -10/13/3 -22/13/3 -11/13/3
f -10/16/3 -16/16/3 -22/16/3
f -9/16/3 -15/16/3 -10/16/3
f -6/9/3 -13/9/3 -14/9/3
f -5/9/3 -13/9/3 -6/9/3
f -4/13/3 -8/13/3 -9/13/3
f -3/13/3 -8/13/3 -4/13/3
f -2/13/3 -6/13/3 -7/13/3
f -1/13/3 -6/13/3 -2/13/3
v -5 9 0.5
v -5 10 0.5
v -4 7 0.5
v -4 9 0.5
v -4 10 0.5
v -3 3 0.5
v -3 5 0.5
v -3 6 0.5
v -3 7 0.5
v -3 9 0.5
v -2 0 0.5
v -2 1 0.5
v -2 2 0.5
v -2 3 0.5
v -2 5 0.5
v -2 6 0.5
v -2 7 0.5
v -1 0 0.5
v -1 1 0.5
v -1 2 0.5
v -1 12 0.5
v -1 13 0.5
v 0 12 0.5
v 0 13 0.5
v 1 0 0.5
v 1 1 0.5
v 1 2 0.5
v 1 12 0.5
v 1 13 0.5
v 2 0 0.5
v 2 1 0.5
v 2 2 0.5
v 2 3 0.5
v 2 5 0.5
v 3 3 0.5
v 3 5 0.5
v 3 7 0.5
v 3 9 0.5
v 4 7 0.5
v 4 9 0.5
v 4 10 0.5
v 5 9 0.5
v 5 10 0.5
f -40/6/3 -42/6/3 -43/6/3
f -39/6/3 -42/6/3 -40/6/3
f -35/6/3 -40/6/3 -41/6/3
f -34/6/3 -40/6/3 -35/6/3
f -30/13/3 -37/13/3 -38/13/3
f -29/13/3 -37/13/3 -30/13/3
f -28/13/3 -35/13/3 -36/13/3
f -27/13/3 -35/13/3 -28/13/3
f -26/10/3 -32/10/3 -33/10/3
f -25/13/3 -31/13/3 -32/13/3
f -25/10/3 -32/10/3 -26/10/3
f -24/13/3 -31/13/3 -25/13/3
f -21/11/3 -22/11/3 -23/11/3
f -20/11/3 -22/11/3 -21/11/3
f -16/9/3 -20/9/3 -21/9/3
f -15/9/3 -20/9/3 -16/9/3
f -14/10/3 -18/10/3 -19/10/3
f -13/13/3 -17/13/3 -18/13/3
f -13/10/3 -18/10/3 -14/10/3
f -12/13/3 -17/13/3 -13/13/3
f -9/13/3 -10/13/3 -11/13/3
f -8/13/3 -10/13/3 -9/13/3
f -5/6/3 -6/6/3 -7/6/3
f -4/6/3 -6/6/3 -5/6/3
f -2/6/3 -3/6/3 -4/6/3
f -1/6/3 -3/6/3 -2/6/3
v -1 4 -0.5
v -1 5 -0.5
v -1 13 -0.5
v -1 14 -0.5
v 0 13 -0.5
v 0 14 -0.5
v 1 4 -0.5
v 1 5 -0.5
f -4/11/3 -5/11/3 -6/11/3
f -3/11/3 -5/11/3 -4/11/3
f -2/16/3 -7/16/3 -8/16/3
f -1/16/3 -7/16/3 -2/16/3
v -3 3 -1.5
v -3 4 -1.5
v -2 3 -1.5
v -2 4 -1.5
f -2/2/3 -3/2/3 -4/2/3
f -1/2/3 -3/2/3 -2/2/3
v -3 3 1.5
v -3 4 1.5
v -2 3 1.5
v -2 4 1.5
f -4/2/4 -3/2/4 -2/2/4
f -2/2/4 -3/2/4 -1/2/4
v -1 4 0.5
v -1 5 0.5
v 1 4 0.5
v 1 5 0.5
f -4/16/4 -3/16/4 -2/16/4
f -2/16/4 -3/16/4 -1/16/4
v -5 9 -0.5
v -5 10 -0.5
v -4 7 -0.5
v -4 9 -0.5
v -4 10 -0.5
v -3 3 -0.5
v -3 5 -0.5
v -3 7 -0.5
v -3 9 -0.5
v -2 0 -0.5
v -2 1 -0.5
v -2 2 -0.5
v -2 3 -0.5
v -2 5 -0.5
v -1 0 -0.5
v -1 1 -0.5
v -1 2 -0.5
v 0 12 -0.5
v 0 13 -0.5
v 1 0 -0.5
v 1 1 -0.5
v 1 2 -0.5
v 1 12 -0.5
v 1 13 -0.5
v 2 0 -0.5
v 2 1 -0.5
v 2 2 -0.5
v 2 3 -0.5
v 2 5 -0.5
v 3 3 -0.5
v 3 5 -0.5
v 3 7 -0.5
v 3 9 -0.5
v 4 7 -0.5
v 4 9 -0.5
v 4 10 -0.5
v 5 9 -0.5
v 5 10 -0.5
f -38/6/4 -37/6/4 -35/6/4
f -35/6/4 -37/6/4 -34/6/4
f -36/6/4 -35/6/4 -31/6/4
f -31/6/4 -35/6/4 -30/6/4
f -33/13/4 -32/13/4 -26/13/4
f -26/13/4 -32/13/4 -25/13/4
f -29/10/4 -28/10/4 -24/10/4
f -28/13/4 -27/13/4 -23/13/4
f -24/10/4 -28/10/4 -23/10/4
f -23/13/4 -27/13/4 -22/13/4
f -21/9/4 -20/9/4 -16/9/4
f -16/9/4 -20/9/4 -15/9/4
f -19/10/4 -18/10/4 -14/10/4
f -18/13/4 -17/13/4 -13/13/4
f -14/10/4 -18/10/4 -13/10/4
f -13/13/4 -17/13/4 -12/13/4
f -11/13/4 -10/13/4 -9/13/4
f -9/13/4 -10/13/4 -8/13/4
f -7/6/4 -6/6/4 -5/6/4
f -5/6/4 -6/6/4 -4/6/4
f -4/6/4 -3/6/4 -2/6/4
f -2/6/4 -3/6/4 -1/6/4
v -3 2 -1.5
v -3 3 -1.5
v -3 6 -1.5
v -3 10 -1.5
v -2 2 -1.5
v -2 3 -1.5
v -2 4 -1.5
v -2 5 -1.5
v -2 6 -1.5
v -2 7 -1.5
v -2 8 -1.5
v -2 10 -1.5
v -2 11 -1.5
v -1 5 -1.5
v -1 6 -1.5
v -1 10 -1.5
v -1 11 -1.5
v -1 12 -1.5
v -1 13 -1.5
v 0 11 -1.5
v 0 12 -1.5
v 0 13 -1.5
v 1 10 -1.5
v 1 11 -1.5
v 1 12 -1.5
v 2 2 -1.5
v 2 3 -1.5
v 2 6 -1.5
v 2 7 -1.5
v 2 9 -1.5
v 2 10 -1.5
v 2 11 -1.5
v 3 6 -1.5
v 3 7 -1.5
v 3 9 -1.5
v 3 10 -1.5
f -36/2/4 -35/2/4 -32/2/4
f -32/2/4 -35/2/4 -31/2/4
f -34/13/4 -33/13/4 -28/13/4
f -28/13/4 -33/13/4 -27/13/4
f -27/13/4 -33/13/4 -26/13/4
f -26/13/4 -33/13/4 -25/13/4
f -30/16/4 -29/16/4 -23/16/4
f -31/16/4 -30/16/4 -23/16/4
f -29/14/4 -28/14/4 -23/14/4
f -23/14/4 -28/14/4 -22/14/4
f -25/9/4 -24/9/4 -21/9/4
f -21/9/4 -24/9/4 -20/9/4
f -20/11/4 -19/11/4 -17/11/4
f -19/9/4 -18/9/4 -16/9/4
f -17/11/4 -19/11/4 -16/11/4
f -16/9/4 -18/9/4 -15/9/4
f -17/9/4 -16/9/4 -13/9/4
f -13/9/4 -16/9/4 -12/9/4
f -32/13/4 -31/13/4 -11/13/4
f -23/16/4 -22/16/4 -10/16/4
f -11/13/4 -31/13/4 -10/13/4
f -31/16/4 -23/16/4 -10/16/4
f -10/16/4 -22/16/4 -9/16/4
f -14/9/4 -13/9/4 -6/9/4
f -6/9/4 -13/9/4 -5/9/4
f -9/13/4 -8/13/4 -4/13/4
f -4/13/4 -8/13/4 -3/13/4
f -7/13/4 -6/13/4 -2/13/4
f -2/13/4 -6/13/4 -1/13/4
v -3 3 -2.5
v -3 4 -2.5
v -2 3 -2.5
v -2 4 -2.5
v -2 6 -2.5
v -2 7 -2.5
v -2 8 -2.5
v -2 10 -2.5
v -1 7 -2.5
v -1 8 -2.5
v -1 9 -2.5
v -1 10 -2.5
v -1 11 -2.5
v -1 13 -2.5
v -1 14 -2.5
v 0 8 -2.5
v 0 9 -2.5
v 0 13 -2.5
v 0 14 -2.5
v 1 10 -2.5
v 1 11 -2.5
v 2 6 -2.5
v 2 7 -2.5
v 2 9 -2.5
v 2 10 -2.5
v 3 7 -2.5
v 3 9 -2.5
f -27/2/4 -26/2/4 -25/2/4
f -25/2/4 -26/2/4 -24/2/4
f -23/13/4 -22/13/4 -19/13/4
f -22/8/4 -21/8/4 -19/8/4
f -21/13/4 -20/13/4 -18/13/4
f -19/8/4 -21/8/4 -18/8/4
f -18/13/4 -20/13/4 -17/13/4
f -17/13/4 -20/13/4 -16/13/4
f -19/13/4 -18/13/4 -12/13/4
f -18/8/4 -17/8/4 -12/8/4
f -17/13/4 -16/13/4 -11/13/4
f -12/8/4 -17/8/4 -11/8/4
f -14/11/4 -13/11/4 -10/11/4
f -10/11/4 -13/11/4 -9/11/4
f -11/13/4 -16/13/4 -8/13/4
f -16/9/4 -15/9/4 -8/9/4
f -12/13/4 -11/13/4 -8/13/4
f -8/9/4 -15/9/4 -7/9/4
f -23/13/4 -19/13/4 -6/13/4
f -19/13/4 -12/13/4 -6/13/4
f -12/13/4 -8/13/4 -6/13/4
f -6/13/4 -8/13/4 -5/13/4
f -5/13/4 -8/13/4 -4/13/4
f -4/13/4 -8/13/4 -3/13/4
f -5/13/4 -4/13/4 -2/13/4
f -2/13/4 -4/13/4 -1/13/4
v -2 0 0.5
v -1 0 0.5
v 1 0 0.5
v 2 0 0.5
v -2 0 -0.5
v -1 0 -0.5
v 1 0 -0.5
v 2 0 -0.5
f -4/10/5 -7/10/5 -8/10/5
f -3/10/5 -7/10/5 -4/10/5
f -2/10/5 -5/10/5 -6/10/5
f -1/10/5 -5/10/5 -2/10/5
v -3 2 1.5
v -2 2 1.5
v 2 2 1.5
v -2 2 0.5
v -1 2 0.5
v 1 2 0.5
v 2 2 0.5
v -2 2 -0.5
v -1 2 -0.5
v 1 2 -0.5
v 2 2 -0.5
v -3 2 -1.5
v -2 2 -1.5
v 2 2 -1.5
f -11/2/5 -13/2/5 -14/2/5
f -11/13/5 -12/13/5 -13/13/5
f -10/13/5 -12/13/5 -11/13/5
f -9/13/5 -12/13/5 -10/13/5
f -8/13/5 -12/13/5 -9/13/5
f -7/2/5 -11/2/5 -14/2/5
f -6/13/5 -9/13/5 -10/13/5
f -5/13/5 -9/13/5 -6/13/5
f -3/2/5 -7/2/5 -14/2/5
f -2/13/5 -4/13/5 -5/13/5
f -2/2/5 -7/2/5 -3/2/5
f -2/13/5 -6/13/5 -7/13/5
f -2/13/5 -5/13/5 -6/13/5
f -1/13/5 -4/13/5 -2/13/5
v -3 3 2.5
v -2 3 2.5
v -3 3 1.5
v -2 3 1.5
v 2 3 0.5
v 3 3 0.5
v 2 3 -0.5
v 3 3 -0.5
v -3 3 -1.5
v -2 3 -1.5
v -3 3 -2.5
v -2 3 -2.5
f -10/2/5 -11/2/5 -12/2/5
f -9/2/5 -11/2/5 -10/2/5
f -6/13/5 -7/13/5 -8/13/5
f -5/13/5 -7/13/5 -6/13/5
f -2/2/5 -3/2/5 -4/2/5
f -1/2/5 -3/2/5 -2/2/5
v -1 5 0.5
v 1 5 0.5
v -1 5 -0.5
v 1 5 -0.5
f -2/3/5 -3/3/5 -4/3/5
f -1/3/5 -3/3/5 -2/3/5
v -2 6 2.5
v 0 6 2.5
v 1 6 2.5
v 2 6 2.5
v -2 6 1.5
v -1 6 1.5
v 0 6 1.5
v 1 6 1.5
v 2 6 1.5
v 3 6 1.5
v -3 6 0.5
v -2 6 0.5
v -2 6 -0.5
v -3 6 -1.5
v -2 6 -1.5
v -1 6 -1.5
v 2 6 -1.5
v 3 6 -1.5
v -2 6 -2.5
v 2 6 -2.5
f -16/13/5 -19/13/5 -20/13/5
f -15/13/5 -19/13/5 -16/13/5
f -14/7/5 -18/7/5 -19/7/5
f -14/13/5 -19/13/5 -15/13/5
f -13/13/5 -17/13/5 -18/13/5
f -13/7/5 -18/7/5 -14/7/5
f -12/13/5 -17/13/5 -13/13/5
f -8/13/5 -9/13/5 -10/13/5
f -7/13/5 -8/13/5 -10/13/5
f -6/13/5 -8/13/5 -7/13/5
f -4/13/5 -11/13/5 -12/13/5
f -3/13/5 -11/13/5 -4/13/5
f -2/13/5 -5/13/5 -6/13/5
f -2/13/5 -4/13/5 -5/13/5
f -1/13/5 -4/13/5 -2/13/5
v -3 7 2.5
v -2 7 2.5
v 2 7 2.5
v 3 7 2.5
v 2 7 1.5
v 3 7 1.5
v -4 7 0.5
v -3 7 0.5
v -2 7 0.5
v 3 7 0.5
v 4 7 0.5
v -4 7 -0.5
v -3 7 -0.5
v 3 7 -0.5
v 4 7 -0.5
v 2 7 -1.5
v 3 7 -1.5
v 2 7 -2.5
v 3 7 -2.5
f -15/13/5 -16/13/5 -17/13/5
f -14/13/5 -16/13/5 -15/13/5
f -12/13/5 -18/13/5 -19/13/5
f -11/13/5 -18/13/5 -12/13/5
f -8/6/5 -12/6/5 -13/6/5
f -7/6/5 -12/6/5 -8/6/5
f -6/6/5 -9/6/5 -10/6/5
f -5/6/5 -9/6/5 -6/6/5
f -2/13/5 -3/13/5 -4/13/5
f -1/13/5 -3/13/5 -2/13/5
v -5 9 0.5
v -4 9 0.5
v 4 9 0.5
v 5 9 0.5
v -5 9 -0.5
v -4 9 -0.5
v 4 9 -0.5
v 5 9 -0.5
f -4/6/5 -7/6/5 -8/6/5
f -3/6/5 -7/6/5 -4/6/5
f -2/6/5 -5/6/5 -6/6/5
f -1/6/5 -5/6/5 -2/6/5
v -1 13 -1.5
v 0 13 -1.5
v -1 13 -2.5
v 0 13 -2.5
f -2/11/5 -3/11/5 -4/11/5
f -1/11/5 -3/11/5 -2/11/5
v -3 3 1.5
v -2 3 1.5
v -3 3 0.5
v -2 3 0.5
v -3 3 -0.5
v -2 3 -0.5
v -3 3 -1.5
v -2 3 -1.5
f -8/2/6 -7/2/6 -6/2/6
f -6/2/6 -7/2/6 -5/2/6
f -4/2/6 -3/2/6 -2/2/6
f -2/2/6 -3/2/6 -1/2/6
v -3 4 2.5
v -2 4 2.5
v -3 4 1.5
v -2 4 1.5
v -1 4 0.5
v 1 4 0.5
v -1 4 -0.5
v 1 4 -0.5
v -3 4 -1.5
v -2 4 -1.5
v -3 4 -2.5
v -2 4 -2.5
f -12/2/6 -11/2/6 -10/2/6
f -10/2/6 -11/2/6 -9/2/6
f -8/1/6 -7/1/6 -6/1/6
f -6/1/6 -7/1/6 -5/1/6
f -4/2/6 -3/2/6 -2/2/6
f -2/2/6 -3/2/6 -1/2/6
v -3 5 0.5
v -2 5 0.5
v 2 5 0.5
v 3 5 0.5
v -3 5 -0.5
v -2 5 -0.5
v 2 5 -0.5
v 3 5 -0.5
f -8/13/6 -7/13/6 -4/13/6
f -4/13/6 -7/13/6 -3/13/6
f -6/13/6 -5/13/6 -2/13/6
f -2/13/6 -5/13/6 -1/13/6
v -3 9 2.5
v -2 9 2.5
v 2 9 2.5
v 3 9 2.5
v -3 9 1.5
v -2 9 1.5
v 2 9 1.5
v 3 9 1.5
v -4 9 0.5
v -3 9 0.5
v 3 9 0.5
v 4 9 0.5
v -4 9 -0.5
v -3 9 -0.5
v 3 9 -0.5
v 4 9 -0.5
v 2 9 -1.5
v 3 9 -1.5
v 2 9 -2.5
v 3 9 -2.5
f -20/13/6 -19/13/6 -16/13/6
f -16/13/6 -19/13/6 -15/13/6
f -18/13/6 -17/13/6 -14/13/6
f -14/13/6 -17/13/6 -13/13/6
f -12/6/6 -11/6/6 -8/6/6
f -8/6/6 -11/6/6 -7/6/6
f -10/6/6 -9/6/6 -6/6/6
f -6/6/6 -9/6/6 -5/6/6
f -4/13/6 -3/13/6 -2/13/6
f -2/13/6 -3/13/6 -1/13/6
v -2 10 2.5
v -1 10 2.5
v 1 10 2.5
v 2 10 2.5
v -3 10 1.5
v -2 10 1.5
v -1 10 1.5
v 1 10 1.5
v 2 10 1.5
v 3 10 1.5
v -5 10 0.5
v -4 10 0.5
v -2 10 0.5
v 4 10 0.5
v 5 10 0.5
v -5 10 -0.5
v -4 10 -0.5
v 4 10 -0.5
v 5 10 -0.5
v -3 10 -1.5
v -2 10 -1.5
v -1 10 -1.5
v 1 10 -1.5
v 2 10 -1.5
v 3 10 -1.5
v -2 10 -2.5
v -1 10 -2.5
v 1 10 -2.5
v 2 10 -2.5
f -29/13/6 -28/13/6 -24/13/6
f -24/13/6 -28/13/6 -23/13/6
f -27/7/6 -26/7/6 -22/7/6
f -22/7/6 -26/7/6 -21/7/6
f -25/13/6 -24/13/6 -17/13/6
f -19/6/6 -18/6/6 -14/6/6
f -14/6/6 -18/6/6 -13/6/6
f -16/6/6 -15/6/6 -12/6/6
f -12/6/6 -15/6/6 -11/6/6
f -25/13/6 -17/13/6 -10/13/6
f -10/13/6 -17/13/6 -9/13/6
f -21/13/6 -20/13/6 -6/13/6
f -6/13/6 -20/13/6 -5/13/6
f -9/13/6 -8/13/6 -4/13/6
f -4/13/6 -8/13/6 -3/13/6
f -7/13/6 -6/13/6 -2/13/6
f -2/13/6 -6/13/6 -1/13/6
v -1 11 2.5
v 1 11 2.5
v -2 11 1.5
v -1 11 1.5
v 0 11 1.5
v 1 11 1.5
v 2 11 1.5
v -2 11 0.5
v -1 11 0.5
v 1 11 0.5
v -1 11 -0.5
v -2 11 -1.5
v -1 11 -1.5
v 0 11 -1.5
v 1 11 -1.5
v 2 11 -1.5
v -1 11 -2.5
v 1 11 -2.5
f -18/9/6 -17/9/6 -15/9/6
f -15/9/6 -17/9/6 -14/9/6
f -14/9/6 -17/9/6 -13/9/6
f -16/11/6 -15/11/6 -11/11/6
f -11/11/6 -15/11/6 -10/11/6
f -13/9/6 -12/9/6 -9/9/6
f -11/9/6 -10/9/6 -8/9/6
f -11/9/6 -8/9/6 -7/9/6
f -7/9/6 -8/9/6 -6/9/6
f -9/9/6 -12/9/6 -4/9/6
f -4/9/6 -12/9/6 -3/9/6
f -6/9/6 -5/9/6 -2/9/6
f -5/9/6 -4/9/6 -2/9/6
f -2/9/6 -4/9/6 -1/9/6
v -1 12 1.5
v 0 12 1.5
v 1 12 1.5
v -1 12 0.5
v 0 12 0.5
v 1 12 0.5
v 0 12 -0.5
v 1 12 -0.5
v 0 12 -1.5
v 1 12 -1.5
f -10/9/6 -9/9/6 -7/9/6
f -9/11/6 -8/11/6 -6/11/6
f -7/9/6 -9/9/6 -6/9/6
f -6/11/6 -8/11/6 -5/11/6
f -4/9/6 -3/9/6 -2/9/6
f -2/9/6 -3/9/6 -1/9/6
v -1 13 0.5
v 0 13 0.5
v 1 13 0.5
v -1 13 -0.5
v 0 13 -0.5
v 1 13 -0.5
f -6/11/6 -5/11/6 -3/11/6
f -5/9/6 -4/9/6 -2/9/6
f -3/11/6 -5/11/6 -2/11/6
f -2/9/6 -4/9/6 -1/9/6
v -1 14 -0.5
v 0 14 -0.5
v -1 14 -2.5
v 0 14 -2.5
f -4/11/6 -3/11/6 -2/11/6
f -2/11/6 -3/11/6 -1/11/6
