# MagicaVoxel @ ephtracy

# material
mtllib Slime_Idle0.mtl
usemtl palette

# normals
vn -1 0 0
vn 1 0 0
vn 0 0 1
vn 0 0 -1
vn 0 -1 0
vn 0 1 0

# texcoords
vt 0.611328 0.5
vt 0.634766 0.5
vt 0.798828 0.5

# verts and faces
v -2.5 0 3
v -2.5 0 2
v -2.5 0 -1
v -2.5 1 3
v -2.5 1 2
v -2.5 1 1
v -2.5 1 -0
v -2.5 1 -1
v -2.5 2 2
v -2.5 2 1
v -2.5 2 -0
f -8/1/1 -10/1/1 -11/1/1
f -7/3/1 -9/3/1 -10/3/1
f -7/1/1 -10/1/1 -8/1/1
f -6/3/1 -9/3/1 -7/3/1
f -5/3/1 -9/3/1 -6/3/1
f -4/3/1 -9/3/1 -5/3/1
f -3/3/1 -6/3/1 -7/3/1
f -2/2/1 -5/2/1 -6/2/1
f -2/3/1 -6/3/1 -3/3/1
f -1/2/1 -5/2/1 -2/2/1
v -1.5 0 5
v -1.5 0 3
v -1.5 0 -1
v -1.5 0 -2
v -1.5 0 -3
v -1.5 1 5
v -1.5 1 4
v -1.5 1 3
v -1.5 1 2
v -1.5 1 -0
v -1.5 1 -1
v -1.5 1 -2
v -1.5 1 -3
v -1.5 2 4
v -1.5 2 3
v -1.5 2 2
v -1.5 2 1
v -1.5 2 -0
v -1.5 2 -1
v -1.5 2 -2
v -1.5 3 3
v -1.5 3 2
v -1.5 3 1
v -1.5 3 -0
v -1.5 3 -1
f -20/3/1 -24/3/1 -25/3/1
f -19/3/1 -24/3/1 -20/3/1
f -18/3/1 -24/3/1 -19/3/1
f -15/2/1 -22/2/1 -23/2/1
f -14/3/1 -21/3/1 -22/3/1
f -14/2/1 -22/2/1 -15/2/1
f -13/3/1 -21/3/1 -14/3/1
f -12/3/1 -17/3/1 -18/3/1
f -12/3/1 -18/3/1 -19/3/1
f -11/3/1 -17/3/1 -12/3/1
f -10/3/1 -17/3/1 -11/3/1
f -8/3/1 -15/3/1 -16/3/1
f -8/3/1 -14/3/1 -15/3/1
f -7/3/1 -14/3/1 -8/3/1
f -6/3/1 -14/3/1 -7/3/1
f -5/2/1 -10/2/1 -11/2/1
f -4/3/1 -9/3/1 -10/3/1
f -4/2/1 -10/2/1 -5/2/1
f -3/1/1 -8/1/1 -9/1/1
f -3/3/1 -9/3/1 -4/3/1
f -2/3/1 -7/3/1 -8/3/1
f -2/1/1 -8/1/1 -3/1/1
f -1/3/1 -7/3/1 -2/3/1
v -0.5 0 6
v -0.5 0 5
v -0.5 0 -3
v -0.5 0 -4
v -0.5 0 -6
v -0.5 1 6
v -0.5 1 5
v -0.5 1 4
v -0.5 1 -2
v -0.5 1 -3
v -0.5 1 -4
v -0.5 1 -6
v -0.5 2 5
v -0.5 2 4
v -0.5 2 3
v -0.5 2 -1
v -0.5 2 -2
v -0.5 2 -3
v -0.5 2 -4
v -0.5 3 4
v -0.5 3 3
v -0.5 3 2
v -0.5 3 1
v -0.5 3 -0
v -0.5 3 -1
v -0.5 3 -2
v -0.5 3 -3
v -0.5 4 3
v -0.5 4 2
v -0.5 4 1
v -0.5 4 -0
v -0.5 4 -1
v -0.5 4 -2
v -0.5 5 2
v -0.5 5 1
v -0.5 5 -0
v -0.5 5 -1
v -0.5 6 1
v -0.5 6 -1
f -34/3/1 -38/3/1 -39/3/1
f -33/3/1 -38/3/1 -34/3/1
f -30/3/1 -36/3/1 -37/3/1
f -29/2/1 -35/2/1 -36/2/1
f -29/3/1 -36/3/1 -30/3/1
f -28/2/1 -35/2/1 -29/2/1
f -27/2/1 -32/2/1 -33/2/1
f -26/2/1 -32/2/1 -27/2/1
f -23/3/1 -30/3/1 -31/3/1
f -22/2/1 -29/2/1 -30/2/1
f -22/3/1 -30/3/1 -23/3/1
f -21/2/1 -29/2/1 -22/2/1
f -20/3/1 -25/3/1 -26/3/1
f -19/3/1 -25/3/1 -20/3/1
f -15/3/1 -23/3/1 -24/3/1
f -14/1/1 -22/1/1 -23/1/1
f -14/3/1 -23/3/1 -15/3/1
f -13/1/1 -22/1/1 -14/1/1
f -12/3/1 -18/3/1 -19/3/1
f -11/2/1 -17/2/1 -18/2/1
f -11/3/1 -18/3/1 -12/3/1
f -10/3/1 -16/3/1 -17/3/1
f -10/2/1 -17/2/1 -11/2/1
f -10/3/1 -15/3/1 -16/3/1
f -9/3/1 -15/3/1 -10/3/1
f -8/2/1 -14/2/1 -15/2/1
f -8/3/1 -15/3/1 -9/3/1
f -7/2/1 -14/2/1 -8/2/1
f -6/3/1 -10/3/1 -11/3/1
f -5/2/1 -9/2/1 -10/2/1
f -5/3/1 -10/3/1 -6/3/1
f -4/2/1 -9/2/1 -5/2/1
f -2/3/1 -3/3/1 -4/3/1
f -2/3/1 -4/3/1 -5/3/1
f -1/3/1 -3/3/1 -2/3/1
v 0.5 0 6
v 0.5 0 5
v 0.5 0 -3
v 0.5 0 -4
v 0.5 0 -6
v 0.5 1 6
v 0.5 1 5
v 0.5 1 4
v 0.5 1 -2
v 0.5 1 -3
v 0.5 1 -4
v 0.5 1 -6
v 0.5 2 5
v 0.5 2 4
v 0.5 2 3
v 0.5 2 -1
v 0.5 2 -2
v 0.5 2 -3
v 0.5 2 -4
v 0.5 3 4
v 0.5 3 3
v 0.5 3 2
v 0.5 3 1
v 0.5 3 -0
v 0.5 3 -1
v 0.5 3 -2
v 0.5 3 -3
v 0.5 4 3
v 0.5 4 2
v 0.5 4 1
v 0.5 4 -0
v 0.5 4 -1
v 0.5 4 -2
v 0.5 5 2
v 0.5 5 1
v 0.5 5 -0
v 0.5 5 -1
v 0.5 6 1
v 0.5 6 -1
f -39/3/2 -38/3/2 -34/3/2
f -34/3/2 -38/3/2 -33/3/2
f -37/3/2 -36/3/2 -30/3/2
f -36/2/2 -35/2/2 -29/2/2
f -30/3/2 -36/3/2 -29/3/2
f -29/2/2 -35/2/2 -28/2/2
f -33/2/2 -32/2/2 -27/2/2
f -27/2/2 -32/2/2 -26/2/2
f -31/3/2 -30/3/2 -23/3/2
f -30/2/2 -29/2/2 -22/2/2
f -23/3/2 -30/3/2 -22/3/2
f -22/2/2 -29/2/2 -21/2/2
f -26/3/2 -25/3/2 -20/3/2
f -20/3/2 -25/3/2 -19/3/2
f -24/3/2 -23/3/2 -15/3/2
f -23/1/2 -22/1/2 -14/1/2
f -15/3/2 -23/3/2 -14/3/2
f -14/1/2 -22/1/2 -13/1/2
f -19/3/2 -18/3/2 -12/3/2
f -18/2/2 -17/2/2 -11/2/2
f -12/3/2 -18/3/2 -11/3/2
f -17/3/2 -16/3/2 -10/3/2
f -11/2/2 -17/2/2 -10/2/2
f -16/3/2 -15/3/2 -10/3/2
f -10/3/2 -15/3/2 -9/3/2
f -15/2/2 -14/2/2 -8/2/2
f -9/3/2 -15/3/2 -8/3/2
f -8/2/2 -14/2/2 -7/2/2
f -11/3/2 -10/3/2 -6/3/2
f -10/2/2 -9/2/2 -5/2/2
f -6/3/2 -10/3/2 -5/3/2
f -5/2/2 -9/2/2 -4/2/2
f -4/3/2 -3/3/2 -2/3/2
f -5/3/2 -4/3/2 -2/3/2
f -2/3/2 -3/3/2 -1/3/2
v 1.5 0 5
v 1.5 0 3
v 1.5 0 -1
v 1.5 0 -2
v 1.5 0 -3
v 1.5 1 5
v 1.5 1 4
v 1.5 1 3
v 1.5 1 2
v 1.5 1 -0
v 1.5 1 -1
v 1.5 1 -2
v 1.5 1 -3
v 1.5 2 4
v 1.5 2 3
v 1.5 2 2
v 1.5 2 1
v 1.5 2 -0
v 1.5 2 -1
v 1.5 2 -2
v 1.5 3 3
v 1.5 3 2
v 1.5 3 1
v 1.5 3 -0
v 1.5 3 -1
f -25/3/2 -24/3/2 -20/3/2
f -20/3/2 -24/3/2 -19/3/2
f -19/3/2 -24/3/2 -18/3/2
f -23/2/2 -22/2/2 -15/2/2
f -22/3/2 -21/3/2 -14/3/2
f -15/2/2 -22/2/2 -14/2/2
f -14/3/2 -21/3/2 -13/3/2
f -18/3/2 -17/3/2 -12/3/2
f -19/3/2 -18/3/2 -12/3/2
f -12/3/2 -17/3/2 -11/3/2
f -11/3/2 -17/3/2 -10/3/2
f -16/3/2 -15/3/2 -8/3/2
f -15/3/2 -14/3/2 -8/3/2
f -8/3/2 -14/3/2 -7/3/2
f -7/3/2 -14/3/2 -6/3/2
f -11/2/2 -10/2/2 -5/2/2
f -10/3/2 -9/3/2 -4/3/2
f -5/2/2 -10/2/2 -4/2/2
f -9/1/2 -8/1/2 -3/1/2
f -4/3/2 -9/3/2 -3/3/2
f -8/3/2 -7/3/2 -2/3/2
f -3/1/2 -8/1/2 -2/1/2
f -2/3/2 -7/3/2 -1/3/2
v 2.5 0 3
v 2.5 0 2
v 2.5 0 -1
v 2.5 1 3
v 2.5 1 2
v 2.5 1 1
v 2.5 1 -0
v 2.5 1 -1
v 2.5 2 2
v 2.5 2 1
v 2.5 2 -0
f -11/1/2 -10/1/2 -8/1/2
f -10/3/2 -9/3/2 -7/3/2
f -8/1/2 -10/1/2 -7/1/2
f -7/3/2 -9/3/2 -6/3/2
f -6/3/2 -9/3/2 -5/3/2
f -5/3/2 -9/3/2 -4/3/2
f -7/3/2 -6/3/2 -3/3/2
f -6/2/2 -5/2/2 -2/2/2
f -3/3/2 -6/3/2 -2/3/2
f -2/2/2 -5/2/2 -1/2/2
v -0.5 0 6
v -0.5 1 6
v 0.5 0 6
v 0.5 1 6
f -2/3/3 -3/3/3 -4/3/3
f -1/3/3 -3/3/3 -2/3/3
v -1.5 0 5
v -1.5 1 5
v -0.5 0 5
v -0.5 1 5
v -0.5 2 5
v 0.5 0 5
v 0.5 1 5
v 0.5 2 5
v 1.5 0 5
v 1.5 1 5
f -8/3/3 -9/3/3 -10/3/3
f -7/3/3 -9/3/3 -8/3/3
f -4/2/3 -6/2/3 -7/2/3
f -3/2/3 -6/2/3 -4/2/3
f -2/3/3 -4/3/3 -5/3/3
f -1/3/3 -4/3/3 -2/3/3
v -1.5 1 4
v -1.5 2 4
v -0.5 1 4
v -0.5 2 4
v -0.5 3 4
v 0.5 1 4
v 0.5 2 4
v 0.5 3 4
v 1.5 1 4
v 1.5 2 4
f -8/3/3 -9/3/3 -10/3/3
f -7/3/3 -9/3/3 -8/3/3
f -4/3/3 -6/3/3 -7/3/3
f -3/3/3 -6/3/3 -4/3/3
f -2/3/3 -4/3/3 -5/3/3
f -1/3/3 -4/3/3 -2/3/3
v -2.5 0 3
v -2.5 1 3
v -1.5 0 3
v -1.5 1 3
v -1.5 2 3
v -1.5 3 3
v -0.5 2 3
v -0.5 3 3
v -0.5 4 3
v 0.5 2 3
v 0.5 3 3
v 0.5 4 3
v 1.5 0 3
v 1.5 1 3
v 1.5 2 3
v 1.5 3 3
v 2.5 0 3
v 2.5 1 3
f -16/1/3 -17/1/3 -18/1/3
f -15/1/3 -17/1/3 -16/1/3
f -12/2/3 -13/2/3 -14/2/3
f -11/2/3 -13/2/3 -12/2/3
f -8/3/3 -10/3/3 -11/3/3
f -7/3/3 -10/3/3 -8/3/3
f -4/2/3 -8/2/3 -9/2/3
f -3/2/3 -8/2/3 -4/2/3
f -2/1/3 -5/1/3 -6/1/3
f -1/1/3 -5/1/3 -2/1/3
v -2.5 1 2
v -2.5 2 2
v -1.5 1 2
v -1.5 2 2
v -0.5 4 2
v -0.5 5 2
v 0.5 4 2
v 0.5 5 2
v 1.5 1 2
v 1.5 2 2
v 2.5 1 2
v 2.5 2 2
f -10/3/3 -11/3/3 -12/3/3
f -9/3/3 -11/3/3 -10/3/3
f -6/3/3 -7/3/3 -8/3/3
f -5/3/3 -7/3/3 -6/3/3
f -2/3/3 -3/3/3 -4/3/3
f -1/3/3 -3/3/3 -2/3/3
v -0.5 5 1
v -0.5 6 1
v 0.5 5 1
v 0.5 6 1
f -2/3/3 -3/3/3 -4/3/3
f -1/3/3 -3/3/3 -2/3/3
v -2.5 1 -0
v -2.5 2 -0
v -1.5 1 -0
v -1.5 2 -0
v -0.5 4 -0
v -0.5 5 -0
v 0.5 4 -0
v 0.5 5 -0
v 1.5 1 -0
v 1.5 2 -0
v 2.5 1 -0
v 2.5 2 -0
f -12/2/4 -11/2/4 -10/2/4
f -10/2/4 -11/2/4 -9/2/4
f -8/2/4 -7/2/4 -6/2/4
f -6/2/4 -7/2/4 -5/2/4
f -4/2/4 -3/2/4 -2/2/4
f -2/2/4 -3/2/4 -1/2/4
v -2.5 0 -1
v -2.5 1 -1
v -1.5 0 -1
v -1.5 1 -1
v -1.5 2 -1
v -1.5 3 -1
v -0.5 2 -1
v -0.5 3 -1
v -0.5 5 -1
v -0.5 6 -1
v 0.5 2 -1
v 0.5 3 -1
v 0.5 5 -1
v 0.5 6 -1
v 1.5 0 -1
v 1.5 1 -1
v 1.5 2 -1
v 1.5 3 -1
v 2.5 0 -1
v 2.5 1 -1
f -20/3/4 -19/3/4 -18/3/4
f -18/3/4 -19/3/4 -17/3/4
f -16/3/4 -15/3/4 -14/3/4
f -14/3/4 -15/3/4 -13/3/4
f -12/3/4 -11/3/4 -8/3/4
f -8/3/4 -11/3/4 -7/3/4
f -10/3/4 -9/3/4 -4/3/4
f -4/3/4 -9/3/4 -3/3/4
f -6/3/4 -5/3/4 -2/3/4
f -2/3/4 -5/3/4 -1/3/4
v -1.5 1 -2
v -1.5 2 -2
v -0.5 1 -2
v -0.5 2 -2
v -0.5 3 -2
v -0.5 4 -2
v 0.5 1 -2
v 0.5 2 -2
v 0.5 3 -2
v 0.5 4 -2
v 1.5 1 -2
v 1.5 2 -2
f -12/3/4 -11/3/4 -10/3/4
f -10/3/4 -11/3/4 -9/3/4
f -8/2/4 -7/2/4 -4/2/4
f -4/2/4 -7/2/4 -3/2/4
f -6/3/4 -5/3/4 -2/3/4
f -2/3/4 -5/3/4 -1/3/4
v -1.5 0 -3
v -1.5 1 -3
v -0.5 0 -3
v -0.5 1 -3
v -0.5 2 -3
v -0.5 3 -3
v 0.5 0 -3
v 0.5 1 -3
v 0.5 2 -3
v 0.5 3 -3
v 1.5 0 -3
v 1.5 1 -3
f -12/3/4 -11/3/4 -10/3/4
f -10/3/4 -11/3/4 -9/3/4
f -8/1/4 -7/1/4 -4/1/4
f -4/1/4 -7/1/4 -3/1/4
f -6/3/4 -5/3/4 -2/3/4
f -2/3/4 -5/3/4 -1/3/4
v -0.5 1 -4
v -0.5 2 -4
v 0.5 1 -4
v 0.5 2 -4
f -4/2/4 -3/2/4 -2/2/4
f -2/2/4 -3/2/4 -1/2/4
v -0.5 0 -6
v -0.5 1 -6
v 0.5 0 -6
v 0.5 1 -6
f -4/2/4 -3/2/4 -2/2/4
f -2/2/4 -3/2/4 -1/2/4
v -0.5 0 6
v 0.5 0 6
v -1.5 0 5
v -0.5 0 5
v 0.5 0 5
v 1.5 0 5
v -2.5 0 3
v -1.5 0 3
v 1.5 0 3
v 2.5 0 3
v -2.5 0 2
v -1.5 0 2
v 1.5 0 2
v 2.5 0 2
v -2.5 0 -1
v -1.5 0 -1
v -0.5 0 -1
v 0.5 0 -1
v 1.5 0 -1
v 2.5 0 -1
v -1.5 0 -2
v -0.5 0 -2
v 0.5 0 -2
v 1.5 0 -2
v -1.5 0 -3
v -0.5 0 -3
v 0.5 0 -3
v 1.5 0 -3
v -0.5 0 -4
v 0.5 0 -4
v -0.5 0 -6
v 0.5 0 -6
f -29/3/5 -31/3/5 -32/3/5
f -28/3/5 -31/3/5 -29/3/5
f -25/3/5 -29/3/5 -30/3/5
f -25/3/5 -27/3/5 -28/3/5
f -25/3/5 -28/3/5 -29/3/5
f -24/3/5 -27/3/5 -25/3/5
f -22/1/5 -25/1/5 -26/1/5
f -21/3/5 -24/3/5 -25/3/5
f -21/1/5 -25/1/5 -22/1/5
f -20/1/5 -23/1/5 -24/1/5
f -20/3/5 -24/3/5 -21/3/5
f -19/1/5 -23/1/5 -20/1/5
f -18/3/5 -21/3/5 -22/3/5
f -18/3/5 -20/3/5 -21/3/5
f -18/3/5 -19/3/5 -20/3/5
f -17/3/5 -19/3/5 -18/3/5
f -16/3/5 -19/3/5 -17/3/5
f -15/3/5 -19/3/5 -16/3/5
f -14/3/5 -19/3/5 -15/3/5
f -13/3/5 -19/3/5 -14/3/5
f -12/2/5 -16/2/5 -17/2/5
f -11/3/5 -15/3/5 -16/3/5
f -11/2/5 -16/2/5 -12/2/5
f -10/2/5 -14/2/5 -15/2/5
f -10/3/5 -15/3/5 -11/3/5
f -9/2/5 -14/2/5 -10/2/5
f -8/3/5 -11/3/5 -12/3/5
f -8/3/5 -10/3/5 -11/3/5
f -8/3/5 -9/3/5 -10/3/5
f -7/3/5 -9/3/5 -8/3/5
f -6/3/5 -9/3/5 -7/3/5
f -5/3/5 -9/3/5 -6/3/5
f -4/3/5 -6/3/5 -7/3/5
f -3/3/5 -6/3/5 -4/3/5
f -2/2/5 -3/2/5 -4/2/5
f -1/2/5 -3/2/5 -2/2/5
v -0.5 5 -0
v 0.5 5 -0
v -0.5 5 -1
v 0.5 5 -1
f -2/3/5 -3/3/5 -4/3/5
f -1/3/5 -3/3/5 -2/3/5
v -0.5 1 6
v 0.5 1 6
v -1.5 1 5
v -0.5 1 5
v 0.5 1 5
v 1.5 1 5
v -1.5 1 4
v -0.5 1 4
v 0.5 1 4
v 1.5 1 4
v -2.5 1 3
v -1.5 1 3
v 1.5 1 3
v 2.5 1 3
v -2.5 1 2
v -1.5 1 2
v 1.5 1 2
v 2.5 1 2
v -2.5 1 -0
v -1.5 1 -0
v 1.5 1 -0
v 2.5 1 -0
v -2.5 1 -1
v -1.5 1 -1
v 1.5 1 -1
v 2.5 1 -1
v -1.5 1 -2
v -0.5 1 -2
v 0.5 1 -2
v 1.5 1 -2
v -1.5 1 -3
v -0.5 1 -3
v 0.5 1 -3
v 1.5 1 -3
v -0.5 1 -4
v 0.5 1 -4
v -0.5 1 -6
v 0.5 1 -6
f -38/3/6 -37/3/6 -35/3/6
f -35/3/6 -37/3/6 -34/3/6
f -36/3/6 -35/3/6 -32/3/6
f -32/3/6 -35/3/6 -31/3/6
f -34/3/6 -33/3/6 -30/3/6
f -30/3/6 -33/3/6 -29/3/6
f -28/1/6 -27/1/6 -24/1/6
f -24/1/6 -27/1/6 -23/1/6
f -26/1/6 -25/1/6 -22/1/6
f -22/1/6 -25/1/6 -21/1/6
f -20/3/6 -19/3/6 -16/3/6
f -16/3/6 -19/3/6 -15/3/6
f -18/3/6 -17/3/6 -14/3/6
f -14/3/6 -17/3/6 -13/3/6
f -12/3/6 -11/3/6 -8/3/6
f -8/3/6 -11/3/6 -7/3/6
f -10/3/6 -9/3/6 -6/3/6
f -6/3/6 -9/3/6 -5/3/6
f -4/2/6 -3/2/6 -2/2/6
f -2/2/6 -3/2/6 -1/2/6
v -0.5 2 5
v 0.5 2 5
v -1.5 2 4
v -0.5 2 4
v 0.5 2 4
v 1.5 2 4
v -1.5 2 3
v -0.5 2 3
v 0.5 2 3
v 1.5 2 3
v -2.5 2 2
v -1.5 2 2
v 1.5 2 2
v 2.5 2 2
v -2.5 2 1
v -1.5 2 1
v 1.5 2 1
v 2.5 2 1
v -2.5 2 -0
v -1.5 2 -0
v 1.5 2 -0
v 2.5 2 -0
v -1.5 2 -1
v -0.5 2 -1
v 0.5 2 -1
v 1.5 2 -1
v -1.5 2 -2
v -0.5 2 -2
v 0.5 2 -2
v 1.5 2 -2
v -0.5 2 -3
v 0.5 2 -3
v -0.5 2 -4
v 0.5 2 -4
f -34/2/6 -33/2/6 -31/2/6
f -31/2/6 -33/2/6 -30/2/6
f -32/3/6 -31/3/6 -28/3/6
f -28/3/6 -31/3/6 -27/3/6
f -30/3/6 -29/3/6 -26/3/6
f -26/3/6 -29/3/6 -25/3/6
f -24/3/6 -23/3/6 -20/3/6
f -20/3/6 -23/3/6 -19/3/6
f -22/3/6 -21/3/6 -18/3/6
f -18/3/6 -21/3/6 -17/3/6
f -20/2/6 -19/2/6 -16/2/6
f -16/2/6 -19/2/6 -15/2/6
f -18/2/6 -17/2/6 -14/2/6
f -14/2/6 -17/2/6 -13/2/6
f -12/3/6 -11/3/6 -8/3/6
f -8/3/6 -11/3/6 -7/3/6
f -10/3/6 -9/3/6 -6/3/6
f -6/3/6 -9/3/6 -5/3/6
f -4/2/6 -3/2/6 -2/2/6
f -2/2/6 -3/2/6 -1/2/6
v -0.5 3 4
v 0.5 3 4
v -1.5 3 3
v -0.5 3 3
v 0.5 3 3
v 1.5 3 3
v -1.5 3 2
v -0.5 3 2
v 0.5 3 2
v 1.5 3 2
v -1.5 3 1
v -0.5 3 1
v 0.5 3 1
v 1.5 3 1
v -1.5 3 -0
v -0.5 3 -0
v 0.5 3 -0
v 1.5 3 -0
v -1.5 3 -1
v -0.5 3 -1
v 0.5 3 -1
v 1.5 3 -1
v -0.5 3 -2
v 0.5 3 -2
v -0.5 3 -3
v 0.5 3 -3
f -26/3/6 -25/3/6 -23/3/6
f -23/3/6 -25/3/6 -22/3/6
f -24/2/6 -23/2/6 -20/2/6
f -20/2/6 -23/2/6 -19/2/6
f -22/2/6 -21/2/6 -18/2/6
f -18/2/6 -21/2/6 -17/2/6
f -20/3/6 -19/3/6 -16/3/6
f -16/3/6 -19/3/6 -15/3/6
f -18/3/6 -17/3/6 -14/3/6
f -14/3/6 -17/3/6 -13/3/6
f -16/1/6 -15/1/6 -12/1/6
f -12/1/6 -15/1/6 -11/1/6
f -14/1/6 -13/1/6 -10/1/6
f -10/1/6 -13/1/6 -9/1/6
f -12/3/6 -11/3/6 -8/3/6
f -8/3/6 -11/3/6 -7/3/6
f -10/3/6 -9/3/6 -6/3/6
f -6/3/6 -9/3/6 -5/3/6
f -4/1/6 -3/1/6 -2/1/6
f -2/1/6 -3/1/6 -1/1/6
v -0.5 4 3
v 0.5 4 3
v -0.5 4 2
v 0.5 4 2
v -0.5 4 -0
v 0.5 4 -0
v -0.5 4 -1
v 0.5 4 -1
v -0.5 4 -2
v 0.5 4 -2
f -10/3/6 -9/3/6 -8/3/6
f -8/3/6 -9/3/6 -7/3/6
f -6/3/6 -5/3/6 -4/3/6
f -4/3/6 -5/3/6 -3/3/6
f -4/2/6 -3/2/6 -2/2/6
f -2/2/6 -3/2/6 -1/2/6
v -0.5 5 2
v 0.5 5 2
v -0.5 5 1
v 0.5 5 1
f -4/3/6 -3/3/6 -2/3/6
f -2/3/6 -3/3/6 -1/3/6
v -0.5 6 1
v 0.5 6 1
v -0.5 6 -1
v 0.5 6 -1
f -4/3/6 -3/3/6 -2/3/6
f -2/3/6 -3/3/6 -1/3/6
